<svg width="32" height="32" viewBox="0 0 32 32" fill="none" xmlns="http://www.w3.org/2000/svg">
<path d="M15.9598 2.66663C8.5998 2.66663 2.62646 8.63996 2.62646 16C2.62646 23.36 8.5998 29.3333 15.9598 29.3333C23.3198 29.3333 29.2931 23.36 29.2931 16C29.2931 8.63996 23.3331 2.66663 15.9598 2.66663ZM14.2931 20.04C14.2931 20.68 14.0265 20.9333 13.3465 20.9333H11.6131C10.9331 20.9333 10.6665 20.68 10.6665 20.04V11.96C10.6665 11.32 10.9331 11.0666 11.6131 11.0666H13.3331C14.0131 11.0666 14.2798 11.32 14.2798 11.96V20.04H14.2931ZM21.3331 20.04C21.3331 20.68 21.0665 20.9333 20.3865 20.9333H18.6665C17.9865 20.9333 17.7198 20.68 17.7198 20.04V11.96C17.7198 11.32 17.9865 11.0666 18.6665 11.0666H20.3865C21.0665 11.0666 21.3331 11.32 21.3331 11.96V20.04Z" fill="#A099FF"/>
</svg>
