<svg width="32" height="32" viewBox="0 0 32 32" fill="none" xmlns="http://www.w3.org/2000/svg">
<path d="M15.9598 2.66663C8.5998 2.66663 2.62646 8.63996 2.62646 16C2.62646 23.36 8.5998 29.3333 15.9598 29.3333C23.3198 29.3333 29.2931 23.36 29.2931 16C29.2931 8.63996 23.3331 2.66663 15.9598 2.66663ZM19.9598 18.9733L16.0931 21.2C15.6131 21.48 15.0798 21.6133 14.5598 21.6133C14.0265 21.6133 13.5065 21.48 13.0265 21.2C12.0665 20.64 11.4931 19.6533 11.4931 18.5333V14.0666C11.4931 12.96 12.0665 11.96 13.0265 11.4C13.9865 10.84 15.1331 10.84 16.1065 11.4L19.9731 13.6266C20.9331 14.1866 21.5065 15.1733 21.5065 16.2933C21.5065 17.4133 20.9331 18.4133 19.9598 18.9733Z" fill="#A099FF"/>
</svg>
