<svg width="25" height="24" viewBox="0 0 25 24" fill="none" xmlns="http://www.w3.org/2000/svg">
<path opacity="0.4" d="M19.5698 19.8201C19.3798 19.8201 19.1898 19.7501 19.0398 19.6001C18.7498 19.3101 18.7498 18.8301 19.0398 18.5401C22.6498 14.9301 22.6498 9.06011 19.0398 5.46011C18.7498 5.17011 18.7498 4.69012 19.0398 4.40012C19.3298 4.11012 19.8098 4.11012 20.0998 4.40012C24.2898 8.59012 24.2898 15.4101 20.0998 19.6001C19.9498 19.7501 19.7598 19.8201 19.5698 19.8201Z" fill="#A099FF"/>
<path opacity="0.4" d="M5.42982 19.8201C5.23982 19.8201 5.04982 19.7501 4.89982 19.6001C0.709824 15.4101 0.709824 8.59012 4.89982 4.40012C5.18982 4.11012 5.66982 4.11012 5.95982 4.40012C6.24982 4.69012 6.24982 5.17011 5.95982 5.46011C2.34982 9.07011 2.34982 14.9401 5.95982 18.5401C6.24982 18.8301 6.24982 19.3101 5.95982 19.6001C5.80982 19.7501 5.61982 19.8201 5.42982 19.8201Z" fill="#A099FF"/>
<path opacity="0.4" d="M12.4998 22.71C11.2498 22.7 10.0598 22.4999 8.94978 22.1099C8.55978 21.9699 8.34976 21.54 8.48976 21.15C8.62976 20.76 9.04978 20.55 9.44978 20.69C10.4098 21.02 11.4298 21.2 12.5098 21.2C13.5798 21.2 14.6098 21.02 15.5598 20.69C15.9498 20.56 16.3798 20.76 16.5198 21.15C16.6598 21.54 16.4498 21.9699 16.0598 22.1099C14.9398 22.4999 13.7498 22.71 12.4998 22.71Z" fill="#A099FF"/>
<path opacity="0.4" d="M15.8 3.34009C15.72 3.34009 15.63 3.33005 15.55 3.30005C14.59 2.97005 13.56 2.79004 12.49 2.79004C11.42 2.79004 10.4 2.97005 9.43999 3.30005C9.04999 3.43005 8.61999 3.23009 8.47999 2.84009C8.33999 2.45009 8.54999 2.02007 8.93999 1.88007C10.05 1.49007 11.25 1.29004 12.49 1.29004C13.73 1.29004 14.93 1.49007 16.04 1.88007C16.43 2.02007 16.64 2.45009 16.5 2.84009C16.4 3.15009 16.11 3.34009 15.8 3.34009Z" fill="#A099FF"/>
<path d="M9.24023 12.0001V10.3302C9.24023 8.25016 10.7103 7.40014 12.5103 8.44014L13.9602 9.28017L15.4102 10.1201C17.2102 11.1601 17.2102 12.8602 15.4102 13.9002L13.9602 14.7401L12.5103 15.5802C10.7103 16.6202 9.24023 15.7701 9.24023 13.6901V12.0001Z" fill="#A099FF"/>
</svg>
