<svg width="28" height="28" viewBox="0 0 28 28" fill="none" xmlns="http://www.w3.org/2000/svg">
<g filter="url(#filter0_dd_52_7430)">
<path d="M20.9401 6.41994L15.7701 3.42994C14.7801 2.85994 13.2301 2.85994 12.2401 3.42994L7.02008 6.43994C4.95008 7.83994 4.83008 8.04994 4.83008 10.2799V15.7099C4.83008 17.9399 4.95008 18.1599 7.06008 19.5799L12.2301 22.5699C12.7301 22.8599 13.3701 22.9999 14.0001 22.9999C14.6301 22.9999 15.2701 22.8599 15.7601 22.5699L20.9801 19.5599C23.0501 18.1599 23.1701 17.9499 23.1701 15.7199V10.2799C23.1701 8.04994 23.0501 7.83994 20.9401 6.41994ZM14.0001 16.2499C12.2101 16.2499 10.7501 14.7899 10.7501 12.9999C10.7501 11.2099 12.2101 9.74994 14.0001 9.74994C15.7901 9.74994 17.2501 11.2099 17.2501 12.9999C17.2501 14.7899 15.7901 16.2499 14.0001 16.2499Z" fill="#A099FF"/>
</g>
<defs>
<filter id="filter0_dd_52_7430" x="0.830078" y="0.00244141" width="26.3398" height="27.9976" filterUnits="userSpaceOnUse" color-interpolation-filters="sRGB">
<feFlood flood-opacity="0" result="BackgroundImageFix"/>
<feColorMatrix in="SourceAlpha" type="matrix" values="0 0 0 0 0 0 0 0 0 0 0 0 0 0 0 0 0 0 127 0" result="hardAlpha"/>
<feOffset dy="1"/>
<feGaussianBlur stdDeviation="2"/>
<feComposite in2="hardAlpha" operator="out"/>
<feColorMatrix type="matrix" values="0 0 0 0 0.0470588 0 0 0 0 0.0470588 0 0 0 0 0.0509804 0 0 0 0.05 0"/>
<feBlend mode="normal" in2="BackgroundImageFix" result="effect1_dropShadow_52_7430"/>
<feColorMatrix in="SourceAlpha" type="matrix" values="0 0 0 0 0 0 0 0 0 0 0 0 0 0 0 0 0 0 127 0" result="hardAlpha"/>
<feOffset dy="1"/>
<feGaussianBlur stdDeviation="2"/>
<feComposite in2="hardAlpha" operator="out"/>
<feColorMatrix type="matrix" values="0 0 0 0 0.0470588 0 0 0 0 0.0470588 0 0 0 0 0.0509804 0 0 0 0.1 0"/>
<feBlend mode="normal" in2="effect1_dropShadow_52_7430" result="effect2_dropShadow_52_7430"/>
<feBlend mode="normal" in="SourceGraphic" in2="effect2_dropShadow_52_7430" result="shape"/>
</filter>
</defs>
</svg>
